<svg width="160" height="160" viewBox="0 0 160 160" fill="none" xmlns="http://www.w3.org/2000/svg">
<g id="Calendar">
<path id="Vector" fill-rule="evenodd" clip-rule="evenodd" d="M33.5 16C32.3397 16 31.2269 16.4609 30.4064 17.2814C29.5859 18.1019 29.125 19.2147 29.125 20.375V24.75H24.75C22.4294 24.75 20.2038 25.6719 18.5628 27.3128C16.9219 28.9538 16 31.1794 16 33.5V77.25C16 79.5706 16.9219 81.7962 18.5628 83.4372C20.2038 85.0781 22.4294 86 24.75 86H77.25C79.5706 86 81.7962 85.0781 83.4372 83.4372C85.0781 81.7962 86 79.5706 86 77.25V33.5C86 31.1794 85.0781 28.9538 83.4372 27.3128C81.7962 25.6719 79.5706 24.75 77.25 24.75H72.875V20.375C72.875 19.2147 72.4141 18.1019 71.5936 17.2814C70.7731 16.4609 69.6603 16 68.5 16C67.3397 16 66.2269 16.4609 65.4064 17.2814C64.5859 18.1019 64.125 19.2147 64.125 20.375V24.75H37.875V20.375C37.875 19.2147 37.4141 18.1019 36.5936 17.2814C35.7731 16.4609 34.6603 16 33.5 16ZM33.5 37.875C32.3397 37.875 31.2269 38.3359 30.4064 39.1564C29.5859 39.9769 29.125 41.0897 29.125 42.25C29.125 43.4103 29.5859 44.5231 30.4064 45.3436C31.2269 46.1641 32.3397 46.625 33.5 46.625H68.5C69.6603 46.625 70.7731 46.1641 71.5936 45.3436C72.4141 44.5231 72.875 43.4103 72.875 42.25C72.875 41.0897 72.4141 39.9769 71.5936 39.1564C70.7731 38.3359 69.6603 37.875 68.5 37.875H33.5Z" fill="#484649"/>
</g>
</svg>
