<svg width="160" height="160" viewBox="0 0 160 160" fill="none" xmlns="http://www.w3.org/2000/svg">
<g id="ClockOutline">
<g id="Vector">
<path d="M55 39.4444V55L66.6667 66.6667M90 55C90 59.5963 89.0947 64.1475 87.3358 68.3939C85.5769 72.6403 82.9988 76.4987 79.7487 79.7487C76.4987 82.9988 72.6403 85.5769 68.3939 87.3358C64.1475 89.0947 59.5963 90 55 90C50.4037 90 45.8525 89.0947 41.6061 87.3358C37.3597 85.5769 33.5013 82.9988 30.2513 79.7487C27.0012 76.4987 24.4231 72.6403 22.6642 68.3939C20.9053 64.1475 20 59.5963 20 55C20 45.7174 23.6875 36.815 30.2513 30.2513C36.815 23.6875 45.7174 20 55 20C64.2826 20 73.185 23.6875 79.7487 30.2513C86.3125 36.815 90 45.7174 90 55Z" fill="#D9D9D9"/>
<path d="M55 39.4444V55L66.6667 66.6667M90 55C90 59.5963 89.0947 64.1475 87.3358 68.3939C85.5769 72.6403 82.9988 76.4987 79.7487 79.7487C76.4987 82.9988 72.6403 85.5769 68.3939 87.3358C64.1475 89.0947 59.5963 90 55 90C50.4037 90 45.8525 89.0947 41.6061 87.3358C37.3597 85.5769 33.5013 82.9988 30.2513 79.7487C27.0012 76.4987 24.4231 72.6403 22.6642 68.3939C20.9053 64.1475 20 59.5963 20 55C20 45.7174 23.6875 36.815 30.2513 30.2513C36.815 23.6875 45.7174 20 55 20C64.2826 20 73.185 23.6875 79.7487 30.2513C86.3125 36.815 90 45.7174 90 55Z" stroke="black" stroke-width="5" stroke-linecap="round" stroke-linejoin="round"/>
</g>
</g>
</svg>
