<svg width="160" height="160" viewBox="0 0 160 160" fill="none" xmlns="http://www.w3.org/2000/svg">
<g id="Notifications none" clip-path="url(#clip0_3650_4402)">
<path id="Vector" d="M61.667 86.666C66.4795 86.666 70.417 83.4352 70.417 79.4865H52.917C52.917 83.4352 56.8545 86.666 61.667 86.666ZM87.917 65.1276V47.1788C87.917 36.1583 80.7857 26.9327 68.2295 24.4917V22.0506C68.2295 19.0711 65.2982 16.666 61.667 16.666C58.0357 16.666 55.1045 19.0711 55.1045 22.0506V24.4917C42.592 26.9327 35.417 36.1224 35.417 47.1788V65.1276L26.667 72.307V75.8968H96.667V72.307L87.917 65.1276ZM79.167 68.7173H44.167V47.1788C44.167 38.2763 50.7732 31.025 61.667 31.025C72.5607 31.025 79.167 38.2763 79.167 47.1788V68.7173Z" fill="black"/>
</g>
<defs>
<clipPath id="clip0_3650_4402">
<rect width="160" height="160" fill="white"/>
</clipPath>
</defs>
</svg>
