<svg width="160" height="160" viewBox="0 0 160 160" fill="none" xmlns="http://www.w3.org/2000/svg">
<g id="OfficeBuilding">
<path id="Vector" fill-rule="evenodd" clip-rule="evenodd" d="M29 24.75C29 22.4294 30.0536 20.2038 31.9289 18.5628C33.8043 16.9219 36.3478 16 39 16H79C81.6522 16 84.1957 16.9219 86.0711 18.5628C87.9464 20.2038 89 22.4294 89 24.75V77.25C90.3261 77.25 91.5979 77.7109 92.5355 78.5314C93.4732 79.3519 94 80.4647 94 81.625C94 82.7853 93.4732 83.8981 92.5355 84.7186C91.5979 85.5391 90.3261 86 89 86H74C72.6739 86 71.4021 85.5391 70.4645 84.7186C69.5268 83.8981 69 82.7853 69 81.625V72.875C69 71.7147 68.4732 70.6019 67.5355 69.7814C66.5979 68.9609 65.3261 68.5 64 68.5H54C52.6739 68.5 51.4021 68.9609 50.4645 69.7814C49.5268 70.6019 49 71.7147 49 72.875V81.625C49 82.7853 48.4732 83.8981 47.5355 84.7186C46.5979 85.5391 45.3261 86 44 86H29C27.6739 86 26.4021 85.5391 25.4645 84.7186C24.5268 83.8981 24 82.7853 24 81.625C24 80.4647 24.5268 79.3519 25.4645 78.5314C26.4021 77.7109 27.6739 77.25 29 77.25V24.75ZM44 29.125H54V37.875H44V29.125ZM54 46.625H44V55.375H54V46.625ZM64 29.125H74V37.875H64V29.125ZM74 46.625H64V55.375H74V46.625Z" fill="#484649"/>
</g>
</svg>
