<svg width="67" height="67" viewBox="0 0 67 67" fill="none" xmlns="http://www.w3.org/2000/svg">
<g id="ShieldCheck">
<path id="Vector" fill-rule="evenodd" clip-rule="evenodd" d="M7.76695 17.246C17.2769 17.1277 26.4207 13.5619 33.5 7.21094C40.5789 13.5631 49.7227 17.1301 59.233 17.2493C59.5944 19.3844 59.7783 21.5852 59.7783 23.8221C59.7783 40.9851 48.8071 55.586 33.5 60.9961C18.1929 55.5828 7.22168 40.9819 7.22168 23.8188C7.22168 21.5786 7.40891 19.3844 7.76695 17.246ZM45.6767 29.426C46.2751 28.8065 46.6061 27.9767 46.5987 27.1154C46.5912 26.2542 46.2457 25.4303 45.6367 24.8213C45.0277 24.2123 44.2038 23.8668 43.3425 23.8593C42.4813 23.8518 41.6515 24.1829 41.032 24.7813L30.2152 35.5981L25.968 31.3509C25.3485 30.7525 24.5187 30.4214 23.6574 30.4289C22.7962 30.4364 21.9723 30.7818 21.3633 31.3909C20.7543 31.9999 20.4088 32.8238 20.4013 33.685C20.3938 34.5463 20.7249 35.376 21.3233 35.9955L27.8929 42.5651C28.5089 43.1809 29.3442 43.5269 30.2152 43.5269C31.0862 43.5269 31.9216 43.1809 32.5376 42.5651L45.6767 29.426Z" fill="#EC6809"/>
</g>
</svg>
