<svg width="96" height="97" viewBox="0 0 96 97" fill="none" xmlns="http://www.w3.org/2000/svg">
<g id="Thumb up" clip-path="url(#clip0_3650_3397)">
<path id="Vector" d="M4 84.5H20V36.5H4V84.5ZM92 40.5C92 36.1 88.4 32.5 84 32.5H58.76L62.56 14.22L62.68 12.94C62.68 11.3 62 9.78 60.92 8.7L56.68 4.5L30.36 30.86C28.88 32.3 28 34.3 28 36.5V76.5C28 80.9 31.6 84.5 36 84.5H72C75.32 84.5 78.16 82.5 79.36 79.62L91.44 51.42C91.8 50.5 92 49.54 92 48.5V40.5Z" fill="#EC6809"/>
</g>
<defs>
<clipPath id="clip0_3650_3397">
<rect width="96" height="96" fill="white" transform="translate(0 0.5)"/>
</clipPath>
</defs>
</svg>
