<svg width="51" height="51" viewBox="0 0 51 51" fill="none" xmlns="http://www.w3.org/2000/svg">
<g id="Remove red eye" clip-path="url(#clip0_4119_2611)">
<path id="Vector" d="M25.4997 9.875C15.083 9.875 6.18717 16.3542 2.58301 25.5C6.18717 34.6458 15.083 41.125 25.4997 41.125C35.9163 41.125 44.8122 34.6458 48.4163 25.5C44.8122 16.3542 35.9163 9.875 25.4997 9.875ZM25.4997 35.9167C19.7497 35.9167 15.083 31.25 15.083 25.5C15.083 19.75 19.7497 15.0833 25.4997 15.0833C31.2497 15.0833 35.9163 19.75 35.9163 25.5C35.9163 31.25 31.2497 35.9167 25.4997 35.9167ZM25.4997 19.25C22.0413 19.25 19.2497 22.0417 19.2497 25.5C19.2497 28.9583 22.0413 31.75 25.4997 31.75C28.958 31.75 31.7497 28.9583 31.7497 25.5C31.7497 22.0417 28.958 19.25 25.4997 19.25Z" fill="#F29D38"/>
</g>
<defs>
<clipPath id="clip0_4119_2611">
<rect width="50" height="50" fill="white" transform="translate(0.5 0.5)"/>
</clipPath>
</defs>
</svg>
